<?xml version="1.0" standalone="no"?>
<!DOCTYPE svg PUBLIC "-//W3C//DTD SVG 20010904//EN"
 "http://www.w3.org/TR/2001/REC-SVG-20010904/DTD/svg10.dtd">
<svg version="1.0" xmlns="http://www.w3.org/2000/svg"
 width="100.000000pt" height="100.000000pt" viewBox="0 0 1080.000000 1080.000000"
 preserveAspectRatio="xMidYMid meet">

<g transform="translate(0.000000,1080.000000) scale(0.100000,-0.100000)"
fill="#000000" stroke="none">
<path d="M4385 7213 c-181 -24 -350 -143 -428 -303 -114 -232 -78 -547 83
-723 99 -108 223 -165 380 -174 175 -10 320 34 424 129 l50 45 -49 57 c-27 31
-59 59 -71 62 -15 4 -39 -6 -74 -30 -103 -71 -244 -85 -358 -36 -67 29 -143
111 -174 188 -20 50 -23 74 -23 192 0 131 1 137 31 201 53 111 125 167 241
189 85 15 168 0 249 -45 93 -50 104 -48 163 33 l49 67 -31 27 c-49 43 -165 97
-242 113 -66 14 -152 17 -220 8z"/>
<path d="M6726 7210 c-134 -24 -232 -75 -327 -169 -113 -113 -164 -248 -163
-431 1 -184 50 -308 168 -426 114 -114 262 -174 430 -174 295 1 528 176 591
442 19 82 19 247 0 323 -52 205 -201 359 -405 419 -66 20 -226 29 -294 16z
m247 -216 c89 -31 162 -109 199 -211 27 -77 30 -242 5 -324 -33 -109 -121
-202 -220 -231 -23 -7 -80 -12 -127 -12 -71 0 -95 5 -146 28 -132 60 -204 190
-204 371 0 216 107 364 287 395 58 10 153 3 206 -16z"/>
<path d="M1930 7110 l0 -100 170 0 170 0 0 -495 0 -495 125 0 125 0 0 495 0
495 170 0 170 0 0 100 0 100 -465 0 -465 0 0 -100z"/>
<path d="M3020 6615 l0 -595 375 0 375 0 0 95 0 95 -255 0 -255 0 0 160 0 160
200 0 200 0 0 90 0 90 -200 0 -200 0 0 155 0 155 255 0 255 0 0 95 0 95 -375
0 -375 0 0 -595z"/>
<path d="M5037 7203 c-4 -3 -7 -271 -7 -595 l0 -588 111 0 110 0 -3 395 c-3
368 -2 393 14 377 9 -9 145 -181 303 -382 157 -201 296 -370 308 -377 12 -7
57 -12 100 -13 l77 0 -2 593 -3 592 -105 0 -105 0 0 -392 c0 -364 -1 -391 -16
-375 -9 9 -146 181 -303 382 -177 225 -297 370 -314 377 -29 13 -154 18 -165
6z"/>
<path d="M4533 5785 c-114 -32 -198 -97 -244 -190 -21 -43 -24 -64 -24 -150 0
-85 3 -106 23 -142 53 -100 119 -144 297 -198 169 -51 210 -84 209 -171 -2
-99 -61 -146 -184 -145 -72 0 -108 13 -226 81 -55 32 -81 20 -133 -62 l-40
-63 21 -22 c32 -34 168 -101 239 -118 138 -32 289 -13 388 49 159 101 217 337
121 489 -37 59 -110 106 -225 147 -228 82 -265 106 -265 178 0 49 18 81 60
110 31 21 44 23 115 20 67 -3 92 -10 154 -40 53 -27 79 -34 94 -29 13 5 38 38
60 79 l38 71 -53 35 c-29 20 -80 45 -113 56 -80 28 -239 36 -312 15z"/>
<path d="M7565 5785 c-212 -44 -384 -206 -441 -416 -24 -89 -24 -263 0 -344
50 -167 156 -295 301 -365 103 -50 192 -70 320 -70 144 0 256 29 363 93 l52
31 0 243 0 243 -205 0 -205 0 0 -74 c0 -95 12 -106 117 -106 l73 0 0 -96 0
-95 -46 -21 c-66 -29 -182 -35 -264 -14 -154 40 -245 150 -270 326 -21 147 19
289 105 375 66 67 120 88 236 93 110 5 181 -11 265 -59 81 -46 93 -41 164 65
l33 49 -29 24 c-50 41 -126 80 -199 103 -91 29 -269 36 -370 15z"/>
<path d="M2120 5195 l0 -597 298 4 c250 4 306 7 352 22 201 66 345 215 395
411 20 77 20 243 0 320 -37 140 -130 270 -244 339 -31 19 -92 47 -136 62 -79
28 -84 28 -372 32 l-293 4 0 -597z m513 395 c128 -19 222 -92 269 -209 19 -48
22 -75 22 -186 0 -165 -19 -222 -103 -306 -78 -78 -119 -91 -303 -97 l-148 -4
0 406 0 406 98 0 c53 0 128 -5 165 -10z"/>
<path d="M3367 5783 c-4 -3 -7 -271 -7 -595 l0 -588 380 0 380 0 0 95 0 95
-255 0 -255 0 0 155 0 155 198 2 197 3 3 93 3 92 -201 0 -201 0 3 153 3 152
253 3 252 2 0 95 0 95 -373 0 c-206 0 -377 -3 -380 -7z"/>
<path d="M5210 5195 l0 -595 120 0 120 0 0 205 0 205 118 0 c187 0 295 29 387
104 81 67 135 217 120 336 -17 132 -81 227 -189 280 -95 47 -188 59 -448 60
l-228 0 0 -595z m491 393 c54 -18 90 -48 110 -92 32 -71 19 -186 -28 -238 -38
-44 -90 -58 -215 -58 l-118 0 0 200 0 200 109 0 c59 0 123 -5 142 -12z"/>
<path d="M6230 5195 l0 -595 380 0 380 0 0 95 0 95 -255 0 -255 0 0 155 0 155
198 2 197 3 3 93 3 92 -201 0 -200 0 0 155 0 155 255 0 255 0 0 95 0 95 -380
0 -380 0 0 -595z"/>
<path d="M8344 5775 c-4 -8 -4 -189 -2 -402 5 -417 7 -433 63 -543 77 -151
239 -240 438 -240 214 0 365 86 447 253 54 111 62 188 58 607 l-3 335 -122 3
-123 3 0 -384 c0 -433 -3 -457 -68 -529 -51 -57 -101 -78 -187 -78 -82 0 -134
21 -182 71 -68 72 -68 71 -71 517 l-3 402 -120 0 c-97 0 -121 -3 -125 -15z"/>
<path d="M9580 5195 l0 -595 380 0 380 0 0 95 0 95 -255 0 -255 0 0 155 0 155
195 0 195 0 0 95 0 95 -195 0 -195 0 0 155 0 155 255 0 256 0 -3 93 -3 92
-377 3 -378 2 0 -595z"/>
</g>
</svg>
